<svg width="360" height="395" viewBox="0 0 360 395" fill="none" xmlns="http://www.w3.org/2000/svg">
<path d="M141.569 80.5062C144.85 67.789 156.902 44.2221 178.859 51.6928C200.816 59.1636 211.941 91.2561 214.759 106.368" stroke="#2F87EE" stroke-width="10.5873"/>
<path d="M320.326 319.341L135.972 354.968L124.231 71.884L297.574 126.949L320.326 319.341Z" fill="#0068E1"/>
<path d="M101.62 93.0074L124.232 71.8806L135.972 354.965L81.5641 341.086L101.62 93.0074Z" fill="#2F87EE"/>
<path d="M74.1798 93.0279L101.62 93.0099L81.5642 341.088L40.158 332.958L74.1798 93.0279Z" fill="#2779D9"/>
<path d="M167.812 89.3654C166.355 70.0138 170.953 33.2728 200.998 41.1221C231.042 48.9713 248.051 95.7102 252.799 118.098" stroke="#0068E1" stroke-width="10.5873"/>
<mask id="mask0_1083_2" style="mask-type:alpha" maskUnits="userSpaceOnUse" x="40" y="93" width="62" height="249">
<path d="M74.1798 93.0252L101.62 93.0073L81.5642 341.085L40.158 332.956L74.1798 93.0252Z" fill="#2779D9"/>
</mask>
<g mask="url(#mask0_1083_2)">
<ellipse opacity="0.2" cx="87.6737" cy="337.3" rx="36.5868" ry="36.466" fill="white"/>
<ellipse opacity="0.2" cx="103.319" cy="88.5152" rx="18.0527" ry="17.9931" fill="white"/>
<path d="M73.7145 228.381C55.0359 220.512 41.701 233.099 37.3684 240.376C19.3959 233.419 -2.68453 215.81 52.7733 201.031C108.231 186.253 112.949 207.189 108.376 219.504C104.605 225.742 92.393 236.25 73.7145 228.381Z" fill="white" fill-opacity="0.1"/>
<path d="M117.761 165.047C94.0754 146.814 64.5653 156.17 52.7709 163.127C21.7202 98.1122 57.8256 174.883 83.8215 134.578C109.817 94.2739 -144.605 53.7294 -14.8666 48.6913C114.872 43.6532 71.0643 203.192 148.571 96.1931C210.576 10.5939 251.591 34.2968 264.349 56.8482C270.687 85.8771 267.478 139.472 203.932 121.623C124.5 99.3119 147.367 187.838 117.761 165.047Z" fill="white" fill-opacity="0.1"/>
</g>
<mask id="mask1_1083_2" style="mask-type:alpha" maskUnits="userSpaceOnUse" x="81" y="71" width="55" height="284">
<path d="M101.62 93.0077L124.232 71.881L135.972 354.965L81.564 341.086L101.62 93.0077Z" fill="#2F87EE"/>
</mask>
<g mask="url(#mask1_1083_2)">
<ellipse opacity="0.2" cx="87.6737" cy="337.301" rx="36.5868" ry="36.466" fill="white"/>
<ellipse opacity="0.2" cx="103.319" cy="88.5158" rx="18.0527" ry="17.9931" fill="white"/>
<path d="M73.7145 228.381C55.0359 220.512 41.701 233.1 37.3684 240.377C19.3959 233.419 -2.68453 215.81 52.7733 201.032C108.231 186.254 112.949 207.19 108.376 219.505C104.605 225.742 92.393 236.25 73.7145 228.381Z" fill="white" fill-opacity="0.1"/>
<path d="M117.761 165.047C94.0754 146.814 64.5653 156.171 52.7709 163.128C21.7202 98.1129 57.8256 174.884 83.8215 134.579C109.817 94.2745 -144.605 53.73 -14.8666 48.6919C114.872 43.6539 71.0643 203.193 148.571 96.1938C210.576 10.5945 251.591 34.2975 264.349 56.8488C270.687 85.8777 267.478 139.473 203.932 121.624C124.5 99.3125 147.367 187.839 117.761 165.047Z" fill="white" fill-opacity="0.1"/>
</g>
<mask id="mask2_1083_2" style="mask-type:alpha" maskUnits="userSpaceOnUse" x="124" y="71" width="197" height="284">
<path d="M320.326 319.341L135.971 354.968L124.231 71.8844L297.574 126.949L320.326 319.341Z" fill="#0068E1"/>
</mask>
<g mask="url(#mask2_1083_2)">
<path d="M163.036 127.506L172.777 297.256L204.32 291.21L200.142 229.182L237.513 238.457L235.734 207.853L198.979 198.759L196.93 164.598L266.534 181.874L264.872 152.782L163.036 127.506Z" fill="#52A2FF"/>
<path d="M256.39 257.628C246.663 201.298 291.055 184.626 314.467 183.331L329.798 341.173L185.723 359.171C179.909 266.935 268.549 328.041 256.39 257.628Z" stroke="#52A2FF" stroke-width="0.962478"/>
<path d="M265.072 262.45C260.836 205.448 306.633 193.117 330.062 194.076V352.656L184.918 356.734C188.047 264.37 270.367 333.703 265.072 262.45Z" fill="white" fill-opacity="0.1"/>
<path d="M117.761 165.047C94.0754 146.814 64.5653 156.171 52.7709 163.128C21.7202 98.1129 57.8256 174.884 83.8215 134.579C109.817 94.2745 -144.605 53.73 -14.8666 48.6919C114.872 43.6539 71.0643 203.193 148.571 96.1938C210.576 10.5945 251.591 34.2975 264.349 56.8488C270.687 85.8777 267.478 139.473 203.932 121.624C124.5 99.3125 147.367 187.839 117.761 165.047Z" fill="white" fill-opacity="0.1"/>
</g>
</svg>
