<svg width="1357" height="395" viewBox="0 0 1357 395" fill="none" xmlns="http://www.w3.org/2000/svg">
<path d="M141.569 80.5062C144.85 67.789 156.902 44.2221 178.859 51.6928C200.816 59.1636 211.941 91.2561 214.759 106.368" stroke="#2F87EE" stroke-width="10.5873"/>
<path d="M320.326 319.341L135.972 354.968L124.231 71.884L297.574 126.949L320.326 319.341Z" fill="#0068E1"/>
<path d="M101.62 93.0074L124.232 71.8806L135.972 354.965L81.5641 341.086L101.62 93.0074Z" fill="#2F87EE"/>
<path d="M74.1798 93.0279L101.62 93.0099L81.5642 341.088L40.158 332.958L74.1798 93.0279Z" fill="#2779D9"/>
<path d="M167.812 89.3654C166.355 70.0138 170.952 33.2728 200.997 41.1221C231.042 48.9713 248.05 95.7102 252.799 118.098" stroke="#0068E1" stroke-width="10.5873"/>
<mask id="mask0_1080_28" style="mask-type:alpha" maskUnits="userSpaceOnUse" x="40" y="93" width="62" height="249">
<path d="M74.1798 93.0252L101.62 93.0073L81.5642 341.085L40.158 332.956L74.1798 93.0252Z" fill="#2779D9"/>
</mask>
<g mask="url(#mask0_1080_28)">
<ellipse opacity="0.2" cx="87.6732" cy="337.3" rx="36.5868" ry="36.466" fill="white"/>
<ellipse opacity="0.2" cx="103.319" cy="88.5152" rx="18.0527" ry="17.9931" fill="white"/>
<path d="M73.7145 228.381C55.0359 220.512 41.701 233.099 37.3684 240.376C19.3959 233.419 -2.68453 215.81 52.7733 201.031C108.231 186.253 112.949 207.189 108.376 219.504C104.605 225.742 92.393 236.25 73.7145 228.381Z" fill="white" fill-opacity="0.1"/>
<path d="M117.761 165.047C94.0754 146.814 64.5653 156.17 52.7709 163.127C21.7202 98.1122 57.8256 174.883 83.8215 134.578C109.817 94.2739 -144.605 53.7294 -14.8666 48.6913C114.872 43.6532 71.0643 203.192 148.571 96.1931C210.576 10.5939 251.591 34.2968 264.349 56.8482C270.687 85.8771 267.478 139.472 203.932 121.623C124.5 99.3119 147.367 187.838 117.761 165.047Z" fill="white" fill-opacity="0.1"/>
</g>
<mask id="mask1_1080_28" style="mask-type:alpha" maskUnits="userSpaceOnUse" x="81" y="71" width="55" height="284">
<path d="M101.62 93.0077L124.232 71.881L135.972 354.965L81.5645 341.086L101.62 93.0077Z" fill="#2F87EE"/>
</mask>
<g mask="url(#mask1_1080_28)">
<ellipse opacity="0.2" cx="87.6737" cy="337.301" rx="36.5868" ry="36.466" fill="white"/>
<ellipse opacity="0.2" cx="103.319" cy="88.5158" rx="18.0527" ry="17.9931" fill="white"/>
<path d="M73.7145 228.381C55.0359 220.512 41.701 233.1 37.3684 240.377C19.3959 233.419 -2.68453 215.81 52.7733 201.032C108.231 186.254 112.949 207.19 108.376 219.505C104.605 225.742 92.393 236.25 73.7145 228.381Z" fill="white" fill-opacity="0.1"/>
<path d="M117.761 165.047C94.0754 146.814 64.5653 156.171 52.7709 163.128C21.7202 98.1129 57.8256 174.884 83.8215 134.579C109.817 94.2745 -144.605 53.73 -14.8666 48.6919C114.872 43.6539 71.0643 203.193 148.571 96.1938C210.576 10.5945 251.591 34.2975 264.349 56.8488C270.687 85.8777 267.478 139.473 203.932 121.624C124.5 99.3125 147.367 187.839 117.761 165.047Z" fill="white" fill-opacity="0.1"/>
</g>
<mask id="mask2_1080_28" style="mask-type:alpha" maskUnits="userSpaceOnUse" x="124" y="71" width="197" height="284">
<path d="M320.326 319.341L135.971 354.968L124.231 71.8844L297.574 126.949L320.326 319.341Z" fill="#0068E1"/>
</mask>
<g mask="url(#mask2_1080_28)">
<path d="M163.037 127.506L172.778 297.256L204.32 291.21L200.142 229.182L237.514 238.457L235.734 207.853L198.979 198.759L196.931 164.598L266.534 181.874L264.873 152.782L163.037 127.506Z" fill="#52A2FF"/>
<path d="M256.389 257.628C246.662 201.298 291.055 184.626 314.467 183.331L329.797 341.173L185.723 359.171C179.908 266.935 268.548 328.041 256.389 257.628Z" stroke="#52A2FF" stroke-width="0.962478"/>
<path d="M265.072 262.45C260.836 205.448 306.633 193.117 330.062 194.076V352.656L184.918 356.734C188.047 264.37 270.367 333.703 265.072 262.45Z" fill="white" fill-opacity="0.1"/>
<path d="M117.761 165.047C94.0754 146.814 64.5653 156.171 52.7709 163.128C21.7202 98.1129 57.8256 174.884 83.8215 134.579C109.817 94.2745 -144.605 53.73 -14.8666 48.6919C114.872 43.6539 71.0643 203.193 148.571 96.1938C210.576 10.5945 251.591 34.2975 264.349 56.8488C270.687 85.8777 267.478 139.473 203.932 121.624C124.5 99.3125 147.367 187.839 117.761 165.047Z" fill="white" fill-opacity="0.1"/>
</g>
<path d="M413 291V147H499.7V171.1H437.1V207H487.7V231H437.1V291H413ZM519.688 291V144H543.788V291H519.688ZM622.842 294C611.909 294 602.309 291.633 594.042 286.9C585.776 282.167 579.309 275.6 574.642 267.2C570.042 258.8 567.742 249.133 567.742 238.2C567.742 226.4 570.009 216.167 574.542 207.5C579.076 198.767 585.376 192 593.442 187.2C601.509 182.4 610.842 180 621.442 180C632.642 180 642.142 182.633 649.942 187.9C657.809 193.1 663.642 200.467 667.442 210C671.242 219.533 672.676 230.767 671.742 243.7H647.842V234.9C647.776 223.167 645.709 214.6 641.642 209.2C637.576 203.8 631.176 201.1 622.442 201.1C612.576 201.1 605.242 204.167 600.442 210.3C595.642 216.367 593.242 225.267 593.242 237C593.242 247.933 595.642 256.4 600.442 262.4C605.242 268.4 612.242 271.4 621.442 271.4C627.376 271.4 632.476 270.1 636.742 267.5C641.076 264.833 644.409 261 646.742 256L670.542 263.2C666.409 272.933 660.009 280.5 651.342 285.9C642.742 291.3 633.242 294 622.842 294ZM585.642 243.7V225.5H659.942V243.7H585.642ZM743.155 294C732.221 294 722.621 291.633 714.355 286.9C706.088 282.167 699.621 275.6 694.955 267.2C690.355 258.8 688.055 249.133 688.055 238.2C688.055 226.4 690.321 216.167 694.855 207.5C699.388 198.767 705.688 192 713.755 187.2C721.821 182.4 731.155 180 741.755 180C752.955 180 762.455 182.633 770.255 187.9C778.121 193.1 783.955 200.467 787.755 210C791.555 219.533 792.988 230.767 792.055 243.7H768.155V234.9C768.088 223.167 766.021 214.6 761.955 209.2C757.888 203.8 751.488 201.1 742.755 201.1C732.888 201.1 725.555 204.167 720.755 210.3C715.955 216.367 713.555 225.267 713.555 237C713.555 247.933 715.955 256.4 720.755 262.4C725.555 268.4 732.555 271.4 741.755 271.4C747.688 271.4 752.788 270.1 757.055 267.5C761.388 264.833 764.721 261 767.055 256L790.855 263.2C786.721 272.933 780.321 280.5 771.655 285.9C763.055 291.3 753.555 294 743.155 294ZM705.955 243.7V225.5H780.255V243.7H705.955ZM877.667 291C870.534 292.333 863.534 292.9 856.667 292.7C849.867 292.567 843.767 291.333 838.367 289C832.967 286.6 828.867 282.833 826.067 277.7C823.601 273.033 822.301 268.267 822.167 263.4C822.034 258.533 821.967 253.033 821.967 246.9V153H845.967V245.5C845.967 249.833 846.001 253.633 846.067 256.9C846.201 260.167 846.901 262.833 848.167 264.9C850.567 268.9 854.401 271.133 859.667 271.6C864.934 272.067 870.934 271.8 877.667 270.8V291ZM802.367 201.9V183H877.667V201.9H802.367ZM961.791 294C947.391 294 935.057 290.867 924.791 284.6C914.524 278.267 906.624 269.467 901.091 258.2C895.624 246.933 892.891 233.867 892.891 219C892.891 204.133 895.624 191.067 901.091 179.8C906.624 168.533 914.524 159.767 924.791 153.5C935.057 147.167 947.391 144 961.791 144C978.391 144 992.224 148.167 1003.29 156.5C1014.36 164.767 1022.12 175.933 1026.59 190L1002.29 196.7C999.491 187.3 994.724 179.967 987.991 174.7C981.257 169.367 972.524 166.7 961.791 166.7C952.124 166.7 944.057 168.867 937.591 173.2C931.191 177.533 926.357 183.633 923.091 191.5C919.891 199.3 918.257 208.467 918.191 219C918.191 229.533 919.791 238.733 922.991 246.6C926.257 254.4 931.124 260.467 937.591 264.8C944.057 269.133 952.124 271.3 961.791 271.3C972.524 271.3 981.257 268.633 987.991 263.3C994.724 257.967 999.491 250.633 1002.29 241.3L1026.59 248C1022.12 262.067 1014.36 273.267 1003.29 281.6C992.224 289.867 978.391 294 961.791 294ZM1078.75 294C1070.95 294 1064.35 292.533 1058.95 289.6C1053.55 286.6 1049.45 282.633 1046.65 277.7C1043.91 272.767 1042.55 267.333 1042.55 261.4C1042.55 256.2 1043.41 251.533 1045.15 247.4C1046.88 243.2 1049.55 239.6 1053.15 236.6C1056.75 233.533 1061.41 231.033 1067.15 229.1C1071.48 227.7 1076.55 226.433 1082.35 225.3C1088.21 224.167 1094.55 223.133 1101.35 222.2C1108.21 221.2 1115.38 220.133 1122.85 219L1114.25 223.9C1114.31 216.433 1112.65 210.933 1109.25 207.4C1105.85 203.867 1100.11 202.1 1092.05 202.1C1087.18 202.1 1082.48 203.233 1077.95 205.5C1073.41 207.767 1070.25 211.667 1068.45 217.2L1046.45 210.3C1049.11 201.167 1054.18 193.833 1061.65 188.3C1069.18 182.767 1079.31 180 1092.05 180C1101.65 180 1110.08 181.567 1117.35 184.7C1124.68 187.833 1130.11 192.967 1133.65 200.1C1135.58 203.9 1136.75 207.8 1137.15 211.8C1137.55 215.733 1137.75 220.033 1137.75 224.7V291H1116.65V267.6L1120.15 271.4C1115.28 279.2 1109.58 284.933 1103.05 288.6C1096.58 292.2 1088.48 294 1078.75 294ZM1083.55 274.8C1089.01 274.8 1093.68 273.833 1097.55 271.9C1101.41 269.967 1104.48 267.6 1106.75 264.8C1109.08 262 1110.65 259.367 1111.45 256.9C1112.71 253.833 1113.41 250.333 1113.55 246.4C1113.75 242.4 1113.85 239.167 1113.85 236.7L1121.25 238.9C1113.98 240.033 1107.75 241.033 1102.55 241.9C1097.35 242.767 1092.88 243.6 1089.15 244.4C1085.41 245.133 1082.11 245.967 1079.25 246.9C1076.45 247.9 1074.08 249.067 1072.15 250.4C1070.21 251.733 1068.71 253.267 1067.65 255C1066.65 256.733 1066.15 258.767 1066.15 261.1C1066.15 263.767 1066.81 266.133 1068.15 268.2C1069.48 270.2 1071.41 271.8 1073.95 273C1076.55 274.2 1079.75 274.8 1083.55 274.8ZM1163.78 291V183H1185.08V209.3L1182.48 205.9C1183.81 202.3 1185.58 199.033 1187.78 196.1C1190.05 193.1 1192.75 190.633 1195.88 188.7C1198.55 186.9 1201.48 185.5 1204.68 184.5C1207.95 183.433 1211.28 182.8 1214.68 182.6C1218.08 182.333 1221.38 182.467 1224.58 183V205.5C1221.38 204.567 1217.68 204.267 1213.48 204.6C1209.35 204.933 1205.61 206.1 1202.28 208.1C1198.95 209.9 1196.21 212.2 1194.08 215C1192.01 217.8 1190.48 221 1189.48 224.6C1188.48 228.133 1187.98 231.967 1187.98 236.1V291H1163.78ZM1306.96 291C1299.83 292.333 1292.83 292.9 1285.96 292.7C1279.16 292.567 1273.06 291.333 1267.66 289C1262.26 286.6 1258.16 282.833 1255.36 277.7C1252.9 273.033 1251.6 268.267 1251.46 263.4C1251.33 258.533 1251.26 253.033 1251.26 246.9V153H1275.26V245.5C1275.26 249.833 1275.3 253.633 1275.36 256.9C1275.5 260.167 1276.2 262.833 1277.46 264.9C1279.86 268.9 1283.7 271.133 1288.96 271.6C1294.23 272.067 1300.23 271.8 1306.96 270.8V291ZM1231.66 201.9V183H1306.96V201.9H1231.66Z" fill="white"/>
</svg>
